# xmcd CD database file
# 
# Track frame offsets:
# 	150
# 	15309
# 	35656
# 	56142
# 	86504
# 	110708
# 	141687
# 	162776
# 	176665
# 	195613
# 	208877
# 	229173
# 	266469
# 	290276
# 	313391
# 
# Disc length: 4393 seconds
# 
# Submitted via: Nero 5.0
# 
# Revision: 1
# Processed by: cddbd v1.4b41PL1 Copyright (c) Steve Scherf et al.
#
DISCID=e211270f
DTITLE=Stevie Ray Vaughn - Various
DYEAR=1900
DGENRE=
TTITLE0=Unknown (Unknown)
TTITLE1=Unknown (Unknown)
TTITLE2=Unknown (Unknown)
TTITLE3=Unknown (Unknown)
TTITLE4=Unknown (Unknown)
TTITLE5=Unknown (Unknown)
TTITLE6=Unknown (Unknown)
TTITLE7=Unknown (Unknown)
TTITLE8=Unknown (Unknown)
TTITLE9=Unknown (Unknown)
TTITLE10=Unknown (Unknown)
TTITLE11=Unknown (Unknown)
TTITLE12=Unknown (Unknown)
TTITLE13=Unknown (Unknown)
TTITLE14=Unknown (Unknown)
EXTD=
EXTT0=
EXTT1=
EXTT2=
EXTT3=
EXTT4=
EXTT5=
EXTT6=
EXTT7=
EXTT8=
EXTT9=
EXTT10=
EXTT11=
EXTT12=
EXTT13=
EXTT14=
PLAYORDER=
